<svg width="19" height="19" viewBox="0 0 19 19" fill="none" xmlns="http://www.w3.org/2000/svg">
<circle cx="9.5" cy="9.5" r="9.5" fill="#E13A3A"/>
<path d="M6.816 5.488V6.496C7.656 5.908 8.52 5.632 9.348 5.632C10.524 5.632 11.208 6.064 11.208 6.868C11.208 7.924 10.284 8.428 9.264 9.028C7.992 9.772 6.528 10.528 6.528 12.52V13H12.276V12.04L7.632 12.052C7.656 10.972 8.772 10.42 9.912 9.748C11.052 9.076 12.216 8.272 12.216 6.88C12.216 5.488 11.1 4.696 9.432 4.696C8.532 4.696 7.632 4.924 6.816 5.488Z" fill="white"/>
</svg>
