<svg width="41" height="20" viewBox="0 0 41 20" fill="none" xmlns="http://www.w3.org/2000/svg">
<path d="M31.0963 11.6138C32.787 11.6138 34.3064 12.6362 34.9461 14.1985C35.5859 15.7609 35.2317 17.5645 34.0436 18.7707C32.8556 19.9654 31.062 20.3215 29.4969 19.6782C27.9432 19.0349 26.9265 17.507 26.9265 15.8068C26.9265 13.4978 28.7886 11.6138 31.0963 11.6138ZM31.0963 17.7368C31.8731 17.7368 32.57 17.2658 32.8784 16.542C33.1754 15.8183 33.0155 14.9912 32.4671 14.4398C31.9188 13.8884 31.0848 13.716 30.3766 14.0262C29.6568 14.3249 29.1885 15.0257 29.1885 15.8183C29.1656 16.8752 30.0338 17.7368 31.0963 17.7368Z" fill="white"/>
<path d="M8.00838 11.6138C9.69913 11.6138 11.2185 12.6362 11.8583 14.1985C12.498 15.7609 12.1439 17.5645 10.9558 18.7707C9.76767 19.9654 7.9741 20.3215 6.40902 19.6782C4.85536 19.0349 3.83862 17.507 3.83862 15.8068C3.85005 13.4978 5.71216 11.6138 8.00838 11.6138ZM8.00838 17.7368C8.78521 17.7368 9.48207 17.2658 9.79052 16.542C10.0875 15.8183 9.92761 14.9912 9.37925 14.4398C8.8309 13.8884 7.99695 13.716 7.28867 14.0262C6.56895 14.3249 6.10057 15.0257 6.10057 15.8183C6.08915 16.8752 6.94595 17.7368 8.00838 17.7368Z" fill="white"/>
<path d="M2.45625 8.15584L9.93895 6.7773L16.3135 1.45844C16.9418 0.941492 17.7415 0.654297 18.5526 0.654297H27.9431C29.017 0.654297 30.0337 1.13679 30.6963 1.98688L34.7632 6.7773H37.505C39.0929 6.7773 40.3838 8.07542 40.3953 9.68371V13.2334C40.3953 15.1864 38.8188 16.7717 36.8653 16.7832H36.1341C36.4197 15.2783 36.0199 13.7159 35.0488 12.5212C34.0778 11.338 32.627 10.6487 31.0962 10.6487C29.5653 10.6487 28.1145 11.338 27.1435 12.5212C26.1724 13.7044 25.7726 15.2668 26.0582 16.7832H13.0463C13.3319 15.2783 12.932 13.7159 11.961 12.5212C10.99 11.338 9.53911 10.6487 8.0083 10.6487C6.47749 10.6487 5.02664 11.338 4.0556 12.5212C3.08457 13.7044 2.68473 15.2668 2.97033 16.7832H2.87893C1.291 16.7717 9.22374e-05 15.4736 9.22374e-05 13.8768V11.0278C-0.0113317 9.58032 1.03967 8.36262 2.45625 8.15584ZM26.2867 5.81232C26.2867 6.34076 26.7208 6.7773 27.2463 6.7773H31.4731C31.8844 6.7773 32.1015 6.29481 31.8387 5.98464L29.0398 2.68764C28.8571 2.46937 28.5943 2.35449 28.3087 2.35449H27.2463C26.7208 2.35449 26.2867 2.79103 26.2867 3.31947V5.81232ZM21.4772 10.327H22.7567C23.2822 10.327 23.7163 9.89049 23.7163 9.36205C23.7163 8.83362 23.2822 8.39708 22.7567 8.39708H21.4772C20.9517 8.39708 20.5176 8.83362 20.5176 9.36205C20.5176 9.89049 20.9402 10.327 21.4772 10.327ZM13.9031 6.80027L23.0765 6.7773C23.602 6.7773 24.0361 6.34076 24.0361 5.81232V3.30798C24.0361 2.77954 23.602 2.343 23.0765 2.343H18.4612C18.2442 2.343 18.0385 2.41193 17.8672 2.54979L13.606 5.93869C13.2519 6.22588 13.4461 6.80027 13.9031 6.80027Z" fill="white"/>
</svg>
