<svg width="44" height="28" viewBox="0 0 44 28" fill="none" xmlns="http://www.w3.org/2000/svg">
<path d="M39.7483 15.2489C41.7423 15.2489 43.3587 13.6193 43.3587 11.6091C43.3587 9.59884 41.7423 7.96924 39.7483 7.96924C37.7544 7.96924 36.1379 9.59884 36.1379 11.6091C36.1379 13.6193 37.7544 15.2489 39.7483 15.2489Z" fill="white"/>
<path d="M0.90834 20.7199C1.40275 20.7199 1.81668 20.3142 1.81668 19.8042C1.81668 18.4364 7.04826 11.6088 14.4645 11.6088C14.9589 11.6088 15.3728 11.2031 15.3728 10.6931C15.3728 10.1946 14.9704 9.77734 14.4645 9.77734C6.41587 9.78894 0 16.9874 0 19.8042C0 20.3142 0.402429 20.7199 0.90834 20.7199Z" fill="white"/>
<path d="M0.90834 18.9005H9.06041C10.2677 18.9005 11.314 18.1122 11.6589 16.9531L13.6481 10.2994L15.4533 6.65958C15.6028 6.3466 15.9132 6.16113 16.2581 6.16113H18.9717C19.2131 6.16113 19.4431 6.25387 19.6155 6.42774L22.9615 9.80094H37.0465C37.5409 9.80094 37.9548 10.2067 37.9548 10.7167V12.5366C37.9548 12.9771 37.6329 13.3596 37.196 13.4292C33.8845 13.9856 28.2505 15.3534 26.9513 16.698L26.8938 16.814C25.1921 20.1872 23.0649 24.3718 18.9717 24.3718H6.32389C2.72502 24.3718 0 22.4128 0 19.8162C0 19.3062 0.402429 18.9005 0.90834 18.9005Z" fill="white"/>
<path d="M40.6566 8.90832L39.8518 8.94309L39.6333 9.39517C39.4723 9.70815 39.1504 9.89362 38.8285 9.89362C38.6905 9.89362 38.5525 9.85884 38.426 9.80088C37.9776 9.58064 37.7936 9.02423 38.0236 8.58375L39.8288 4.94394C40.0472 4.51504 40.5532 4.32957 41.0016 4.51504L42.8298 5.31487C43.2552 5.50034 43.4736 5.98719 43.3357 6.43927L42.4273 9.17493C42.2664 9.65019 41.7489 9.90521 41.289 9.75452C40.9096 9.61541 40.6796 9.27925 40.6566 8.90832Z" fill="white"/>
<path d="M38.4376 13.5218C38.886 13.3016 39.4264 13.4754 39.6449 13.9275L39.7599 14.1478C39.8403 13.7305 40.2083 13.4175 40.6452 13.4175C41.1396 13.4175 41.5536 13.8232 41.5536 14.3332V16.1531C41.5536 16.6516 41.1511 17.0689 40.6452 17.0689H39.7369C39.3919 17.0689 39.0815 16.8718 38.932 16.5704L38.0237 14.7505C37.8167 14.2985 38.0007 13.7536 38.4376 13.5218Z" fill="white"/>
<path d="M17.1664 3.41374C17.6608 3.41374 18.0747 3.00803 18.0747 2.498V1.58225C18.0747 1.08381 17.6723 0.666504 17.1664 0.666504C16.672 0.666504 16.2581 1.07221 16.2581 1.58225V2.498C16.2581 3.00803 16.6605 3.41374 17.1664 3.41374Z" fill="white"/>
<path d="M0.90834 4.31782H17.1665C17.6609 4.31782 18.0748 3.91211 18.0748 3.40208C18.0748 2.90363 17.6724 2.48633 17.1665 2.48633H0.90834C0.413927 2.48633 0 2.89204 0 3.40208C0 3.91211 0.402429 4.31782 0.90834 4.31782Z" fill="white"/>
<path d="M17.1664 4.31782H33.4245C33.9189 4.31782 34.3329 3.91211 34.3329 3.40208C34.3329 2.90363 33.9304 2.48633 33.4245 2.48633H17.1664C16.672 2.48633 16.2581 2.89204 16.2581 3.40208C16.2581 3.91211 16.6605 4.31782 17.1664 4.31782Z" fill="white"/>
<path d="M13.556 27.9996C14.0505 27.9996 14.4644 27.5939 14.4644 27.0839V23.4441C14.4644 22.9456 14.062 22.5283 13.556 22.5283C13.0616 22.5283 12.6477 22.934 12.6477 23.4441V27.0839C12.6477 27.5939 13.0501 27.9996 13.556 27.9996Z" fill="white"/>
<path d="M6.32387 27.9996C6.81828 27.9996 7.23221 27.5939 7.23221 27.0839V23.4441C7.23221 22.9456 6.82978 22.5283 6.32387 22.5283C5.81796 22.5283 5.41553 22.934 5.41553 23.4441V27.0839C5.41553 27.5939 5.82945 27.9996 6.32387 27.9996Z" fill="white"/>
<path d="M22.5819 28.0002C23.0763 28.0002 23.4902 27.5944 23.4902 27.0844C23.4902 26.586 23.0878 26.1687 22.5819 26.1687H4.51858C3.8632 26.0643 2.127 25.5891 1.69008 24.8124C1.44862 24.3719 0.896721 24.2212 0.459798 24.4647C0.0228753 24.7081 -0.126598 25.2645 0.114859 25.705C1.09219 27.4669 4.05867 27.9306 4.39211 27.9886L22.5819 28.0002Z" fill="white"/>
</svg>
