<svg width="63" height="60" viewBox="0 0 63 60" fill="none" xmlns="http://www.w3.org/2000/svg">
<path d="M62.9996 2.73585C62.9956 1.18695 61.288 0.239543 59.9715 1.06047C45.0177 10.3865 29.2971 24.8734 22.0603 25.0649C15.962 19.5908 11.0633 17.541 7.09729 18.799C3.67362 19.885 1.30144 23.3801 0.0467283 29.1871C-0.304884 30.8148 1.39538 32.1251 2.87955 31.3707C6.08614 29.7408 8.40374 29.6886 10.614 31.1996C14.874 34.6032 14.2366 45.5212 19.8569 48.4403C23.54 50.3533 28.0944 50.5025 33.4252 48.8904C34.2867 53.2847 38.6238 56.583 42.4021 58.9782C42.886 59.2851 43.4941 59.3747 44.0654 59.192C53.0362 56.3233 60.1785 48.7884 55.8824 40.7122C55.4467 39.8929 54.5007 39.486 53.6057 39.7337C50.0273 40.7245 46.2448 40.4315 42.0485 38.8377L40.2543 37.6556C58.5301 35.8909 63.0452 21.173 62.9996 2.73585Z" fill="white"/>
</svg>
