<svg width="58" height="56" viewBox="0 0 58 56" fill="none" xmlns="http://www.w3.org/2000/svg">
<path d="M57.9167 21.3457C57.7169 20.7305 57.1853 20.2821 56.5452 20.1892L38.565 17.5764L30.5237 1.28357C30.2376 0.703569 29.6468 0.336426 29.0001 0.336426C28.3533 0.336426 27.7626 0.703569 27.4764 1.28357L19.4348 17.5764L1.45485 20.1892C0.814927 20.2821 0.283074 20.7305 0.0832464 21.3456C-0.116694 21.9608 0.0500551 22.6361 0.51326 23.0875L13.5233 35.7698L10.4525 53.6775C10.3431 54.3151 10.6052 54.9592 11.1285 55.3395C11.4245 55.5545 11.7751 55.6639 12.1274 55.6639C12.3979 55.6639 12.6693 55.5994 12.9178 55.4687L29 47.0137L45.0814 55.4686C45.6541 55.7696 46.3477 55.7195 46.8709 55.3394C47.3942 54.9592 47.6564 54.3148 47.5471 53.6773L44.4753 35.7698L57.4868 23.0874C57.9499 22.6361 58.1168 21.9608 57.9167 21.3457Z" fill="white"/>
</svg>
