<svg width="51" height="59" viewBox="0 0 51 59" fill="none" xmlns="http://www.w3.org/2000/svg">
<path d="M2.90005 40.037C1.68169 40.037 0.776964 41.1589 1.03029 42.3531C2.05564 47.2265 6.26562 51.2073 11.8387 52.8358V55.9239C11.8387 57.6248 13.2139 59 14.9148 59H36.1577C37.8585 59 39.2337 57.6248 39.2337 55.9239V52.8117C44.7706 51.1711 48.9444 47.2024 49.9698 42.3531C50.2231 41.1589 49.3184 40.037 48.1 40.037H39.2337V36.02C44.7706 34.3795 48.9444 30.4108 49.9698 25.5614C50.2231 24.3672 49.3184 23.2453 48.1 23.2453H39.2337V19.2284C44.7706 17.5878 48.9444 13.6191 49.9698 8.76978C50.2231 7.57555 49.3184 6.45369 48.1 6.45369H39.2337V3.07606C39.2337 1.37518 37.8585 0 36.1577 0H14.9027C13.2018 0 11.8266 1.37518 11.8266 3.07606V6.42956H2.90005C1.68169 6.42956 0.776964 7.55142 1.03029 8.74566C2.05564 13.6191 6.26562 17.5999 11.8387 19.2284V23.2333H2.90005C1.68169 23.2333 0.776964 24.3551 1.03029 25.5494C2.05564 30.4228 6.26562 34.4036 11.8387 36.0321V40.037H2.90005ZM25.5302 7.2981C28.8113 7.2981 31.4652 9.95195 31.4652 13.2331C31.4652 16.5142 28.8113 19.1681 25.5302 19.1681C22.2491 19.1681 19.5952 16.5142 19.5952 13.2331C19.5952 9.95195 22.2491 7.2981 25.5302 7.2981ZM25.5302 24.1018C28.8113 24.1018 31.4652 26.7557 31.4652 30.0368C31.4652 33.3179 28.8113 35.9718 25.5302 35.9718C22.2491 35.9718 19.5952 33.3179 19.5952 30.0368C19.5952 26.7557 22.2491 24.1018 25.5302 24.1018ZM25.5302 40.9055C28.8113 40.9055 31.4652 43.5594 31.4652 46.8405C31.4652 50.1217 28.8113 52.7755 25.5302 52.7755C22.2491 52.7755 19.5952 50.1217 19.5952 46.8405C19.5952 43.5594 22.2491 40.9055 25.5302 40.9055Z" fill="white"/>
</svg>
