<svg width="96" height="82" viewBox="0 0 96 82" fill="none" xmlns="http://www.w3.org/2000/svg">
<path d="M94.591 3.52052H49.409V1.92365C49.409 1.14551 48.7781 0.514648 48 0.514648C47.2219 0.514648 46.591 1.14551 46.591 1.92365V3.52052H1.409C0.630857 3.52052 0 4.15138 0 4.92952C0 5.70767 0.630857 6.33852 1.409 6.33852H46.591V11.267C44.8457 11.8566 43.5851 13.5083 43.5851 15.4501V20.0613C38.0004 20.1913 33.0973 23.3123 30.5167 27.9626C30.2766 28.1826 30.1134 28.4841 30.0709 28.8239C29.3651 30.3111 28.8881 31.9337 28.6899 33.6506L26.5702 52.0217C26.369 53.7657 26.6777 55.5178 27.4628 57.0881L28.1515 58.4654C28.6294 59.4213 29.2576 60.2644 29.9995 60.9729C28.1716 61.6212 26.7331 63.1463 26.2411 65.1148L22.8529 78.6675H20.9472C20.169 78.6675 19.5382 79.2983 19.5382 80.0765C19.5382 80.8546 20.169 81.4855 20.9472 81.4855H26.9589C27.737 81.4855 28.3679 80.8546 28.3679 80.0765C28.3679 79.2983 27.737 78.6675 26.9589 78.6675H25.7577L28.9749 65.7982C29.3206 64.4157 30.5571 63.4503 31.9823 63.4503H64.0177C65.4427 63.4503 66.6794 64.4157 67.0251 65.7982L70.2423 78.6675H69.0411C68.2629 78.6675 67.6321 79.2983 67.6321 80.0765C67.6321 80.8546 68.2629 81.4855 69.0411 81.4855H72.0415C72.043 81.4855 72.0443 81.4859 72.0458 81.4859C72.0479 81.4859 72.0498 81.4855 72.0518 81.4855H75.0528C75.831 81.4855 76.4618 80.8546 76.4618 80.0765C76.4618 79.2983 75.831 78.6675 75.0528 78.6675H73.1471L69.7589 65.1148C69.2669 63.1463 67.8284 61.6212 66.0005 60.9729C66.7423 60.2644 67.3706 59.4215 67.8485 58.4656L68.5374 57.0881C69.3225 55.5178 69.6312 53.7657 69.43 52.0217L67.3103 33.6508C67.1121 31.9339 66.6351 30.3113 65.9293 28.8241C65.8868 28.4843 65.7234 28.1828 65.4835 27.9628C62.9029 23.3127 57.9998 20.1915 52.4151 20.0615V15.4503C52.4151 13.5085 51.1545 11.8567 49.4092 11.2672V6.33852H94.5912C95.3693 6.33852 96.0002 5.70767 96.0002 4.92952C96.0002 4.15138 95.3691 3.52052 94.591 3.52052ZM65.9629 55.9354L65.3281 57.205C64.2711 59.3189 62.1464 60.6321 59.783 60.6321H36.217C33.8536 60.6321 31.7288 59.3189 30.6719 57.205L30.0371 55.9354H65.9629ZM66.668 53.1275C66.6144 53.1213 66.5601 53.1174 66.5049 53.1174H49.409V34.9882C49.409 34.2101 48.7781 33.5792 48 33.5792C47.2219 33.5792 46.591 34.2101 46.591 34.9882V53.1174H29.332C29.3296 52.8604 29.3399 52.6024 29.3696 52.3445L31.4893 33.9736C31.6345 32.7149 31.9654 31.5193 32.448 30.409H63.552C64.0346 31.5193 64.3655 32.7149 64.5107 33.9736L66.6304 52.3445C66.6604 52.6058 66.671 52.8672 66.668 53.1275ZM61.8557 27.591H34.1442C36.4537 24.6989 40.0051 22.8708 43.9468 22.8708H52.053C55.9949 22.8708 59.5463 24.6989 61.8557 27.591ZM49.5969 20.0528H46.4031V15.4501C46.4031 14.5695 47.1195 13.8532 48 13.8532C48.8805 13.8532 49.5969 14.5695 49.5969 15.4501V20.0528Z" fill="white"/>
</svg>
